name C:\Users\u0101727\Documents\MyRepositories\upper-imu-dc\Results\main_tracking\Case_59\kinematics.mot
datacolumns 10
datarows 28
range 6.25000000 6.52000000
endheader 
time	clav_prot	clav_elev	scapula_abduction	scapula_elevation	scapula_upward_rot	scapula_winging	plane_elv	shoulder_elv	axial_rot	
          6.25000000	        -42.35279418	         -0.93124631	         -2.24596411	         -9.38336844	         72.70683943	         -8.04721694	         32.38240397	         89.83837651	          7.56240662	
          6.26000000	        -42.36276502	         -0.92887272	         -2.14343751	         -9.37343339	         72.86213406	         -8.04253955	         32.62692382	         89.86085032	          7.44987265	
          6.27000000	        -42.37152654	         -0.92564902	         -2.04010848	         -9.36275610	         73.01615649	         -8.03762850	         32.87320265	         89.88164266	          7.33911153	
          6.28000000	        -42.37920269	         -0.92143670	         -1.93613585	         -9.35124607	         73.16899759	         -8.03261727	         33.12133769	         89.90082323	          7.23044046	
          6.29000000	        -42.38593370	         -0.91611906	         -1.83170056	         -9.33882893	         73.32074887	         -8.02763551	         33.37135220	         89.91847028	          7.12412640	
          6.30000000	        -42.39187322	         -0.90960134	         -1.72700044	         -9.32544627	         73.47150348	         -8.02280748	         33.62319400	         89.93467278	          7.02038101	
          6.31000000	        -42.39718549	         -0.90180966	         -1.62224496	         -9.31105457	         73.62135718	         -8.01825105	         33.87673557	         89.94953256	          6.91935779	
          6.32000000	        -42.40204257	         -0.89268953	         -1.51765085	         -9.29562404	         73.77040856	         -8.01407705	         34.13177488	         89.96316561	          6.82115062	
          6.33000000	        -42.40662158	         -0.88220536	         -1.41343838	         -9.27913808	         73.91875830	         -8.01038818	         34.38803621	         89.97570262	          6.72579259	
          6.34000000	        -42.41110210	         -0.87034142	         -1.30982795	         -9.26159382	         74.06650772	         -8.00727731	         34.64517122	         89.98728894	          6.63325438	
          6.35000000	        -42.41566338	         -0.85710421	         -1.20703640	         -9.24300374	         74.21375706	         -8.00482500	         34.90276072	         89.99808407	          6.54344190	
          6.36000000	        -42.42048139	         -0.84252591	         -1.10527294	         -9.22339802	         74.36060349	         -8.00309631	         35.16031748	         90.00826090	          6.45619350	
          6.37000000	        -42.42572567	         -0.82666842	         -1.00473483	         -9.20282725	         74.50713895	         -8.00213740	         35.41729108	         90.01800422	          6.37127794	
          6.38000000	        -42.43155616	         -0.80962692	         -0.90560311	         -9.18136489	         74.65344799	         -8.00197233	         35.67307554	         90.02750894	          6.28839484	
          6.39000000	        -42.43812048	         -0.79153152	         -0.80803900	         -9.15910834	         74.79960603	         -8.00260106	         35.92702083	         90.03697791	          6.20717979	
          6.40000000	        -42.44555157	         -0.77254491	         -0.71218115	         -9.13617728	         74.94567844	         -8.00399984	         36.17844872	         90.04661960	          6.12721627	
          6.41000000	        -42.45396603	         -0.75285489	         -0.61814421	         -9.11270822	         75.09172076	         -8.00612446	         36.42667239	         90.05664569	          6.04805470	
          6.42000000	        -42.46346322	         -0.73266185	         -0.52601907	         -9.08884576	         75.23777948	         -8.00891650	         36.67101794	         90.06726837	          5.96923774	
          6.43000000	        -42.47412520	         -0.71216420	         -0.43587527	         -9.06473227	         75.38389258	         -8.01231105	         36.91084469	         90.07869704	          5.89032804	
          6.44000000	        -42.48601751	         -0.69154503	         -0.34776522	         -9.04049875	         75.53008897	         -8.01624421	         37.14556144	         90.09113443	          5.81093396	
          6.45000000	        -42.49919034	         -0.67096296	         -0.26172899	         -9.01625857	         75.67638704	         -8.02065864	         37.37463742	         90.10477250	          5.73072878	
          6.46000000	        -42.51367918	         -0.65054769	         -0.17779766	         -8.99210470	         75.82279288	         -8.02550628	         37.59760812	         90.11978860	          5.64946078	
          6.47000000	        -42.52950455	         -0.63039946	         -0.09599376	         -8.96810935	         75.96929893	         -8.03074855	         37.81407753	         90.13634213	          5.56695353	
          6.48000000	        -42.54667001	         -0.61059042	         -0.01632801	         -8.94432489	         76.11588376	         -8.03635456	         38.02371853	         90.15457176	          5.48309807	
          6.49000000	        -42.56515902	         -0.59116616	          0.06120739	         -8.92078471	         76.26251330	         -8.04229834	         38.22627334	         90.17459305	          5.39783975	
          6.50000000	        -42.58493079	         -0.57214642	          0.13664788	         -8.89750316	         76.40914363	         -8.04855602	         38.42155533	         90.19649711	          5.31116281	
          6.51000000	        -42.60591606	         -0.55352467	          0.21006590	         -8.87447479	         76.55572400	         -8.05510331	         38.60945206	         90.22034845	          5.22307580	
          6.52000000	        -42.62801377	         -0.53526716	          0.28157899	         -8.85167317	         76.70220038	         -8.06191374	         38.78992805	         90.24618415	          5.13359876	
